<svg viewBox="0 0 100 100" height="36" width="36" xmlns="http://www.w3.org/2000/svg"><path style="stroke:#000;stroke-width:.41283644138" d="M35.113 14.703a4.558 4.558 0 0 0-4.568 4.568v2.338h-11.29A13.146 13.146 0 0 0 6.082 34.787v37.018a13.142 13.142 0 0 0 13.173 13.172H80.74a13.147 13.147 0 0 0 13.178-13.172V34.787A13.146 13.146 0 0 0 80.74 21.61H69.455v-2.338a4.558 4.558 0 0 0-4.568-4.568H35.113ZM50 31.196c12.18 0 22.103 9.917 22.103 22.097 0 12.18-9.923 22.103-22.103 22.103-12.181 0-22.103-9.923-22.103-22.103 0-12.18 9.922-22.097 22.103-22.097Zm-30.073.835a4.59 4.59 0 0 1 4.59 4.59h.006a4.59 4.59 0 1 1-4.595-4.59ZM50 35.536a17.721 17.721 0 0 0-17.757 17.757A17.722 17.722 0 0 0 50 71.05a17.723 17.723 0 0 0 17.757-17.757A17.722 17.722 0 0 0 50 35.536Z"/></svg>